<svg id="visual" viewBox="0 0 1500 550" width="1500" height="550" xmlns="http://www.w3.org/2000/svg" xmlns:xlink="http://www.w3.org/1999/xlink" version="1.1"><g stroke-width="1" stroke-linejoin="bevel"><path d="M822.1 364.7L657.9 401.7L832.1 550Z" fill="#d3d3d3" stroke="#d3d3d3"></path><path d="M657.9 401.7L639.9 550L832.1 550Z" fill="#f6f6f6" stroke="#f6f6f6"></path><path d="M822.1 364.7L621.9 191.3L657.9 401.7Z" fill="#e9e9e9" stroke="#e9e9e9"></path><path d="M657.9 401.7L418.6 403.7L639.9 550Z" fill="#f6f6f6" stroke="#f6f6f6"></path><path d="M832.1 550L1052.4 550L822.1 364.7Z" fill="#e0e0e0" stroke="#e0e0e0"></path><path d="M822.1 364.7L882.1 153.3L621.9 191.3Z" fill="#dcdcdc" stroke="#dcdcdc"></path><path d="M1052.4 550L1067.4 368.7L822.1 364.7Z" fill="#ffffff" stroke="#ffffff"></path><path d="M1052.4 184.3L882.1 153.3L822.1 364.7Z" fill="#f6f6f6" stroke="#f6f6f6"></path><path d="M449.6 212.3L418.6 403.7L657.9 401.7Z" fill="#fbfbfb" stroke="#fbfbfb"></path><path d="M418.6 403.7L413.6 550L639.9 550Z" fill="#f6f6f6" stroke="#f6f6f6"></path><path d="M621.9 191.3L449.6 212.3L657.9 401.7Z" fill="#fbfbfb" stroke="#fbfbfb"></path><path d="M616.9 0L449.6 212.3L621.9 191.3Z" fill="#e9e9e9" stroke="#e9e9e9"></path><path d="M1067.4 368.7L1052.4 184.3L822.1 364.7Z" fill="#d3d3d3" stroke="#d3d3d3"></path><path d="M1086.4 0L881.1 0L882.1 153.3Z" fill="#ffffff" stroke="#ffffff"></path><path d="M882.1 153.3L616.9 0L621.9 191.3Z" fill="#f6f6f6" stroke="#f6f6f6"></path><path d="M881.1 0L616.9 0L882.1 153.3Z" fill="#e9e9e9" stroke="#e9e9e9"></path><path d="M418.6 403.7L249.3 550L413.6 550Z" fill="#fbfbfb" stroke="#fbfbfb"></path><path d="M196.3 345.7L249.3 550L418.6 403.7Z" fill="#f2f2f2" stroke="#f2f2f2"></path><path d="M1067.4 368.7L1323.7 190.3L1052.4 184.3Z" fill="#e0e0e0" stroke="#e0e0e0"></path><path d="M1052.4 184.3L1086.4 0L882.1 153.3Z" fill="#ffffff" stroke="#ffffff"></path><path d="M1052.4 550L1293.7 388.7L1067.4 368.7Z" fill="#d7d7d7" stroke="#d7d7d7"></path><path d="M1052.4 550L1311.7 550L1293.7 388.7Z" fill="#fbfbfb" stroke="#fbfbfb"></path><path d="M1323.7 190.3L1086.4 0L1052.4 184.3Z" fill="#d7d7d7" stroke="#d7d7d7"></path><path d="M253.3 185.3L418.6 403.7L449.6 212.3Z" fill="#ffffff" stroke="#ffffff"></path><path d="M253.3 185.3L196.3 345.7L418.6 403.7Z" fill="#dcdcdc" stroke="#dcdcdc"></path><path d="M397.6 0L253.3 185.3L449.6 212.3Z" fill="#e9e9e9" stroke="#e9e9e9"></path><path d="M616.9 0L397.6 0L449.6 212.3Z" fill="#ededed" stroke="#ededed"></path><path d="M1500 385.7L1323.7 190.3L1293.7 388.7Z" fill="#e5e5e5" stroke="#e5e5e5"></path><path d="M1293.7 388.7L1323.7 190.3L1067.4 368.7Z" fill="#f6f6f6" stroke="#f6f6f6"></path><path d="M1323.7 190.3L1310.7 0L1086.4 0Z" fill="#ededed" stroke="#ededed"></path><path d="M397.6 0L198.3 0L253.3 185.3Z" fill="#e5e5e5" stroke="#e5e5e5"></path><path d="M0 161.3L0 387.7L196.3 345.7Z" fill="#ffffff" stroke="#ffffff"></path><path d="M1311.7 550L1500 385.7L1293.7 388.7Z" fill="#e9e9e9" stroke="#e9e9e9"></path><path d="M1323.7 190.3L1500 0L1310.7 0Z" fill="#ededed" stroke="#ededed"></path><path d="M1311.7 550L1500 550L1500 385.7Z" fill="#f2f2f2" stroke="#f2f2f2"></path><path d="M0 161.3L196.3 345.7L253.3 185.3Z" fill="#ededed" stroke="#ededed"></path><path d="M196.3 345.7L0 550L249.3 550Z" fill="#f6f6f6" stroke="#f6f6f6"></path><path d="M0 387.7L0 550L196.3 345.7Z" fill="#ededed" stroke="#ededed"></path><path d="M1500 385.7L1500 188.3L1323.7 190.3Z" fill="#f2f2f2" stroke="#f2f2f2"></path><path d="M198.3 0L0 161.3L253.3 185.3Z" fill="#e0e0e0" stroke="#e0e0e0"></path><path d="M1500 188.3L1500 0L1323.7 190.3Z" fill="#f6f6f6" stroke="#f6f6f6"></path><path d="M198.3 0L0 0L0 161.3Z" fill="#d3d3d3" stroke="#d3d3d3"></path></g></svg>